IKResults
version=1
nRows=10
nColumns=40
inDegrees=yes

Units are S.I. units (second, meters, Newtons, ...)
Angles are in degrees.

endheader
time	pelvis_tilt	pelvis_list	pelvis_rotation	pelvis_tx	pelvis_ty	pelvis_tz	hip_flexion_r	hip_adduction_r	hip_rotation_r	knee_angle_r	knee_angle_r_beta	ankle_angle_r	subtalar_angle_r	mtp_angle_r	hip_flexion_l	hip_adduction_l	hip_rotation_l	knee_angle_l	knee_angle_l_beta	ankle_angle_l	subtalar_angle_l	mtp_angle_l	lumbar_extension	lumbar_bending	lumbar_rotation	arm_flex_r	arm_add_r	arm_rot_r	elbow_flex_r	pro_sup_r	wrist_flex_r	wrist_dev_r	arm_flex_l	arm_add_l	arm_rot_l	elbow_flex_l	pro_sup_l	wrist_flex_l	wrist_dev_l
      1.29000000	     16.25582262	      2.02459441	     -0.74729752	      0.25835433	      0.92203802	     -1.43895394	    -28.87666296	      0.49473495	     -7.96345280	    -19.95278040	     -0.34824171	     15.99156647	     -6.50592357	     -2.62866950	      9.25582089	     -0.78012973	     16.59998947	    -16.69676277	     -0.29141348	      7.59741638	     -0.26752065	     -0.32995696	    -21.05982582	     -4.15698428	      2.95395101	      0.43055123	    -15.13900686	     -1.89405923	     54.17542884	     89.95437384	      0.00000000	      0.00000000	     -9.73130458	      7.61196175	     18.41346971	      9.68521924	     89.95437384	      0.00000000	      0.00000000
      1.30000000	     16.19731448	      2.44442648	     -1.38338481	      0.27293244	      0.91997121	     -1.43931129	    -29.02756437	     -0.42704758	     -7.30343581	    -21.45871689	     -0.37452526	     15.71653379	     -6.38184322	     -2.81938784	      9.36143602	     -1.21614992	     17.99480236	    -15.45642634	     -0.26976553	      7.76971094	     -2.38640240	     -0.94011493	    -20.91148571	     -4.71458918	      3.46324191	      0.32697560	    -15.24165429	     -2.16652699	     54.77983480	     89.95437384	      0.00000000	      0.00000000	    -10.38239596	      7.60186834	     17.64355825	      9.53951683	     89.95437384	      0.00000000	      0.00000000
      1.31000000	     16.07287016	      2.72127604	     -2.08784653	      0.28818377	      0.91798800	     -1.43931144	    -29.15070203	     -1.22078519	     -6.50948204	    -22.85543111	     -0.39890252	     15.34860774	     -6.01302381	     -3.14663660	      9.64179338	     -1.32934234	     19.78370513	    -15.02349168	     -0.26220939	      7.58571031	     -4.06230986	     -1.69309798	    -20.60973141	     -5.17676201	      4.06837045	      0.03660742	    -15.28154073	     -2.43838815	     55.35551151	     89.95437384	      0.00000000	      0.00000000	    -11.15670687	      7.64475074	     16.48611811	      9.55478159	     89.95437384	      0.00000000	      0.00000000
      1.32000000	     15.79691181	      2.74884584	     -2.08435605	      0.30330131	      0.91603851	     -1.43995736	    -29.16099035	     -1.35817586	     -5.94131395	    -24.18128007	     -0.42204295	     14.59333262	     -5.79186779	     -3.12222959	     10.20726965	     -1.36465534	     19.51771096	    -15.28585370	     -0.26678848	      7.56074733	     -4.15293919	     -1.77659100	    -20.20800270	     -5.18778305	      3.91537970	     -0.07569415	    -15.17738493	     -2.56717791	     55.56638521	     89.95437384	      0.00000000	      0.00000000	    -11.90086152	      7.64813439	     16.29564059	      9.65272570	     89.95437384	      0.00000000	      0.00000000
      1.33000000	     15.67917286	      2.75463449	     -2.37266962	      0.31883806	      0.91458757	     -1.44013740	    -29.12712025	     -1.61962451	     -5.30181676	    -25.86818127	     -0.45148493	     13.53507271	     -5.72942734	     -3.06392224	     10.40259900	     -1.35321265	     19.05891424	    -15.74690405	     -0.27483532	      7.67195957	     -4.25185850	     -1.90864365	    -19.89196032	     -5.28777632	      4.07958242	     -0.30732584	    -15.07247840	     -2.66931968	     55.61549869	     89.95437384	      0.00000000	      0.00000000	    -12.56069910	      7.65416005	     16.02867078	      9.69586225	     89.95437384	      0.00000000	      0.00000000
      1.34000000	     15.72915719	      2.52256695	     -3.19340806	      0.33521974	      0.91368138	     -1.43938790	    -29.19179656	     -1.74034681	     -3.81419796	    -27.52413236	     -0.48038673	     11.36232799	     -7.77749267	     -4.70236463	     10.27725947	     -0.75064754	     20.07608500	    -16.63581225	     -0.29034970	      7.17758169	     -4.87841012	     -7.11206775	    -19.59377698	     -5.28061510	      4.99270969	     -0.88913823	    -14.96609891	     -3.11637310	     55.79410323	     89.95437384	      0.00000000	      0.00000000	    -13.11611867	      7.72584002	     14.72233878	      9.56019800	     89.95437384	      0.00000000	      0.00000000
      1.35000000	     15.86137614	      2.46917927	     -3.40347343	      0.35148319	      0.91322649	     -1.43975942	    -29.13726946	     -1.98415520	     -3.83361741	    -29.60152104	     -0.51664401	      9.42260752	     -7.65890733	     -4.39938981	     10.31573300	     -0.54856842	     20.31576794	    -18.36389351	     -0.32051041	      4.54264952	     -2.86259380	     -6.62260880	    -19.48355788	     -5.28472294	      4.97981113	     -1.20490442	    -14.80814150	     -3.17831861	     55.63649908	     89.95437384	      0.00000000	      0.00000000	    -13.71636538	      7.74190226	     14.58405395	      9.64448312	     89.95437384	      0.00000000	      0.00000000
      1.36000000	     16.10970730	      2.57092046	     -3.63173745	      0.36769627	      0.91333051	     -1.44009896	    -29.00110751	     -2.31738195	     -3.65493730	    -31.91516224	     -0.55702466	      7.46414804	     -7.56504023	     -4.07836394	     10.09495234	     -0.57569354	     19.58874128	    -20.25952731	     -0.35359546	      2.32949422	     -1.62898938	     -6.23724371	    -19.52638389	     -5.47652666	      4.87844629	     -1.52392036	    -14.55079517	     -3.27929408	     55.40274716	     89.95437384	      0.00000000	      0.00000000	    -14.23712000	      7.79293581	     14.48315379	      9.84959291	     89.95437384	      0.00000000	      0.00000000
      1.37000000	     16.52394248	      2.92202829	     -3.96526486	      0.38406188	      0.91441664	     -1.44040280	    -28.78910176	     -2.95392550	     -3.87155524	    -34.35070975	     -0.59953299	      3.49102641	    -10.01071138	     -3.24797705	      9.45204985	     -1.02424287	     18.83129158	    -21.63933200	     -0.37767759	      1.35516316	      1.00869230	     -6.19767563	    -19.69483903	     -5.97305198	      4.89848600	     -1.94184847	    -14.23076831	     -3.44928180	     54.91479642	     89.95437384	      0.00000000	      0.00000000	    -14.23386756	      7.84140001	     14.91242189	      9.37391581	     89.95437384	      0.00000000	      0.00000000
      1.38000000	     17.07243867	      3.17812097	     -4.04384185	      0.40019999	      0.91610037	     -1.44095138	    -28.36800706	     -3.60683961	     -4.79117950	    -37.27772561	     -0.65061905	     -0.37081771	    -10.12881313	     -2.67866552	      8.83520753	     -1.17979860	     18.63525523	    -23.44883211	     -0.40925933	      1.00545103	      2.14320121	     -5.97995784	    -20.09418465	     -6.30315152	      4.50997605	     -2.20644615	    -13.90180086	     -3.44082473	     54.22019885	     89.95437384	      0.00000000	      0.00000000	    -14.39978767	      7.94397664	     14.71070494	      9.35598256	     89.95437384	      0.00000000	      0.00000000
